<svg id="svg" version="1.1" xmlns="http://www.w3.org/2000/svg" xmlns:xlink="http://www.w3.org/1999/xlink" width="400" height="347.66666666666663" viewBox="0, 0, 400,347.66666666666663"><g id="svgg"><path id="path0" d="M270.500 0.637 C 250.112 4.411,227.102 17.788,204.105 39.236 C 202.054 41.148,200.283 42.712,200.168 42.712 C 200.053 42.711,198.325 41.189,196.329 39.329 C 192.645 35.898,184.353 28.849,182.468 27.546 C 181.900 27.154,180.025 25.769,178.301 24.469 C 169.106 17.533,158.728 11.368,149.500 7.359 C 147.667 6.563,145.709 5.713,145.150 5.472 C 132.018 -0.208,115.308 -1.208,105.167 3.078 C 81.561 13.054,73.808 51.279,85.120 101.914 L 86.552 108.328 83.693 109.182 C 23.739 127.097,-6.333 158.591,7.956 188.504 C 15.884 205.102,35.901 220.917,63.000 231.995 C 64.925 232.781,66.950 233.616,67.500 233.850 C 69.657 234.766,79.026 237.989,82.500 239.010 C 84.517 239.603,86.206 240.120,86.255 240.160 C 86.304 240.200,85.969 241.867,85.512 243.866 C 83.859 251.091,83.690 251.906,82.856 256.667 C 75.204 300.324,83.018 333.583,103.333 343.823 C 122.680 353.574,155.123 343.660,185.657 318.667 C 189.595 315.443,192.540 312.912,196.276 309.541 C 201.180 305.115,200.563 305.190,204.144 308.588 C 205.741 310.103,208.124 312.260,209.441 313.380 C 210.757 314.501,212.283 315.811,212.833 316.292 C 243.291 342.946,276.891 354.030,296.489 343.891 C 318.664 332.418,326.426 292.844,315.825 245.305 C 314.524 239.471,314.473 239.000,315.138 239.000 C 319.520 239.000,348.909 226.591,358.950 220.500 C 359.253 220.317,360.817 219.366,362.426 218.388 C 386.859 203.542,399.148 183.547,394.676 165.916 C 389.069 143.811,360.137 122.640,318.272 110.006 C 315.875 109.283,313.856 108.634,313.786 108.564 C 313.716 108.494,314.097 106.501,314.633 104.135 C 321.274 74.780,321.384 46.195,314.929 27.500 C 307.678 6.502,291.537 -3.257,270.500 0.637 M285.955 17.878 C 301.834 23.116,307.185 55.863,298.805 96.500 C 297.437 103.130,297.141 104.170,296.634 104.124 C 296.377 104.100,292.792 103.392,288.667 102.550 C 274.973 99.756,251.761 96.333,246.503 96.333 C 245.435 96.333,245.181 96.119,243.448 93.750 C 236.271 83.939,233.725 80.570,229.528 75.333 C 225.428 70.217,221.917 66.053,217.335 60.876 C 215.409 58.700,213.483 56.485,213.055 55.955 L 212.277 54.990 214.722 52.719 C 242.920 26.532,270.821 12.886,285.955 17.878 M126.706 17.821 C 142.853 20.639,164.355 33.273,184.833 51.974 C 188.527 55.347,188.423 54.815,185.931 57.564 C 183.622 60.111,182.983 60.836,179.379 64.999 C 176.297 68.558,175.457 69.550,174.000 71.349 C 173.358 72.141,172.373 73.324,171.810 73.978 C 169.433 76.739,162.562 85.705,158.000 92.000 C 154.657 96.612,155.256 96.193,151.605 96.469 C 141.138 97.259,115.331 101.303,104.952 103.780 L 103.070 104.229 102.887 103.198 C 102.785 102.631,102.258 100.217,101.714 97.833 C 92.832 58.922,97.025 25.430,111.594 18.917 C 115.205 17.302,121.232 16.865,126.706 17.821 M207.951 76.167 C 213.010 82.029,222.837 94.289,222.622 94.469 C 222.555 94.526,218.825 94.432,214.333 94.261 C 206.189 93.952,181.020 94.165,178.512 94.564 L 177.190 94.775 178.997 92.471 C 184.122 85.935,192.209 76.105,194.900 73.138 C 195.413 72.573,196.808 71.020,198.000 69.687 L 200.167 67.264 201.614 68.882 C 202.410 69.772,205.262 73.050,207.951 76.167 M223.667 111.658 C 226.875 111.837,230.858 112.080,232.518 112.199 L 235.535 112.415 239.393 118.291 C 250.110 134.615,271.000 171.193,271.000 173.635 C 271.000 175.415,256.174 202.539,247.067 217.421 C 238.036 232.178,235.977 235.120,234.499 235.384 C 227.019 236.719,191.431 236.936,169.000 235.783 L 164.833 235.569 162.108 231.534 C 159.175 227.194,154.425 219.920,153.812 218.833 C 153.606 218.467,151.932 215.692,150.093 212.667 C 146.739 207.150,143.779 202.089,141.906 198.667 C 138.028 191.582,136.456 188.605,132.970 181.738 L 129.029 173.977 130.961 170.072 C 135.775 160.338,140.587 151.264,144.876 143.833 C 145.299 143.100,145.897 142.050,146.204 141.500 C 146.512 140.950,148.264 138.025,150.098 135.000 C 151.933 131.975,153.604 129.200,153.812 128.833 C 154.225 128.107,154.889 127.077,160.579 118.333 L 164.376 112.500 166.605 112.285 C 167.830 112.167,172.583 111.899,177.167 111.690 C 181.750 111.481,186.625 111.258,188.000 111.195 C 192.381 110.993,217.613 111.321,223.667 111.658 M142.326 114.917 C 142.322 115.054,142.025 115.542,141.667 116.000 C 141.308 116.458,141.011 116.935,141.007 117.060 C 141.003 117.184,140.394 118.199,139.653 119.314 C 136.117 124.637,128.300 138.135,122.798 148.417 C 121.351 151.121,120.074 153.333,119.960 153.333 C 119.525 153.333,114.065 139.282,110.570 129.167 C 108.112 122.054,107.827 121.037,108.194 120.684 C 109.231 119.687,142.350 114.090,142.326 114.917 M264.915 115.686 C 274.861 117.151,291.770 120.325,292.265 120.820 C 292.685 121.241,285.303 141.779,281.749 150.075 C 280.008 154.140,280.335 154.175,277.936 149.667 C 274.014 142.298,269.757 134.844,263.759 124.845 C 263.433 124.302,261.929 121.859,260.417 119.416 C 258.904 116.974,257.667 114.906,257.667 114.821 C 257.667 114.607,257.266 114.559,264.915 115.686 M96.920 141.833 C 98.712 146.807,101.449 153.861,102.998 157.500 C 105.445 163.250,108.280 169.848,109.192 171.919 L 110.111 174.005 108.855 176.752 C 103.087 189.366,96.386 206.679,92.277 219.583 C 91.562 221.829,90.918 223.667,90.847 223.667 C 90.483 223.667,81.343 220.780,78.000 219.609 C 64.779 214.979,52.449 208.619,41.922 200.998 C 39.770 199.441,37.570 197.853,37.033 197.469 C 26.904 190.232,20.173 178.384,21.762 170.590 C 24.972 154.851,49.580 137.828,85.481 126.512 L 91.128 124.732 93.363 131.449 C 94.593 135.144,96.193 139.817,96.920 141.833 M315.833 127.136 C 355.280 139.721,381.604 160.547,378.229 176.500 C 374.935 192.065,349.737 209.913,315.167 221.167 L 309.833 222.903 308.072 217.702 C 304.164 206.158,298.482 191.808,293.540 181.000 L 290.111 173.500 291.583 170.333 C 296.817 159.072,302.916 143.532,307.320 130.238 C 308.754 125.910,309.162 125.007,309.615 125.152 C 309.918 125.249,312.717 126.141,315.833 127.136 M195.686 138.686 C 173.690 141.420,159.431 164.366,166.873 185.054 C 175.684 209.547,206.857 216.557,224.900 198.101 C 248.073 174.400,228.507 134.607,195.686 138.686 M283.064 199.754 C 285.896 206.472,290.015 217.395,291.967 223.366 L 293.231 227.231 286.366 228.610 C 277.965 230.297,271.465 231.408,264.667 232.319 C 261.825 232.700,259.017 233.090,258.426 233.186 L 257.353 233.360 261.127 227.263 C 264.678 221.528,270.998 210.710,273.843 205.500 C 274.543 204.217,275.730 202.042,276.480 200.667 C 277.231 199.292,278.367 197.155,279.005 195.918 C 279.644 194.681,280.242 193.670,280.333 193.672 C 280.425 193.673,281.654 196.410,283.064 199.754 M121.961 197.753 C 127.461 208.217,139.985 229.581,142.776 233.262 C 143.033 233.600,142.826 233.653,141.801 233.510 C 141.085 233.411,137.650 232.954,134.167 232.494 C 122.150 230.909,107.667 228.231,107.667 227.593 C 107.667 225.937,119.390 194.324,120.000 194.337 C 120.092 194.339,120.974 195.876,121.961 197.753 M298.627 246.583 C 303.460 267.229,304.506 284.853,302.006 303.550 C 300.121 317.652,293.524 327.795,284.667 330.211 C 276.408 332.465,261.862 328.428,247.000 319.757 C 244.113 318.073,235.397 312.450,235.000 312.016 C 234.908 311.915,233.408 310.759,231.667 309.446 C 227.373 306.210,222.305 301.960,217.064 297.200 L 212.697 293.234 213.302 292.464 C 213.635 292.040,214.732 290.750,215.738 289.597 C 216.745 288.444,218.614 286.300,219.893 284.833 C 225.910 277.932,237.002 263.606,242.791 255.258 C 245.526 251.313,244.556 251.814,250.680 251.182 C 266.341 249.566,281.112 247.256,294.333 244.356 C 295.892 244.014,297.342 243.719,297.556 243.701 C 297.779 243.681,298.235 244.909,298.627 246.583 M109.333 245.639 C 122.605 248.241,139.241 250.601,150.667 251.501 C 155.354 251.870,155.152 251.774,157.232 254.599 C 167.908 269.100,176.763 280.058,185.974 290.167 L 188.707 293.167 186.104 295.619 C 169.273 311.474,148.988 324.157,132.259 329.286 C 123.077 332.101,112.048 330.452,107.144 325.533 C 95.984 314.336,93.903 285.210,101.712 249.506 C 102.869 244.216,102.857 244.249,103.611 244.466 C 103.917 244.554,106.492 245.081,109.333 245.639 M220.277 257.083 C 215.165 263.866,209.154 271.174,201.593 279.798 L 200.685 280.833 198.834 278.877 C 197.816 277.801,196.574 276.434,196.075 275.840 C 195.575 275.246,193.438 272.751,191.326 270.296 C 186.761 264.992,184.108 261.748,180.395 256.929 L 177.643 253.359 193.238 253.531 C 205.535 253.666,221.263 253.414,223.094 253.051 C 223.237 253.023,221.969 254.838,220.277 257.083 " stroke="none" fill="#64dcfc" fill-rule="evenodd"></path><path id="path1" d="" stroke="none" fill="#68dcfc" fill-rule="evenodd"></path><path id="path2" d="" stroke="none" fill="#68dcfc" fill-rule="evenodd"></path><path id="path3" d="" stroke="none" fill="#68dcfc" fill-rule="evenodd"></path><path id="path4" d="" stroke="none" fill="#68dcfc" fill-rule="evenodd"></path><path id="path5" d="" stroke="none" fill="#68dcfc" fill-rule="evenodd"></path><path id="path6" d="" stroke="none" fill="#68dcfc" fill-rule="evenodd"></path><path id="path7" d="" stroke="none" fill="#68dcfc" fill-rule="evenodd"></path><path id="path8" d="" stroke="none" fill="#68dcfc" fill-rule="evenodd"></path></g></svg>